<svg xmlns="http://www.w3.org/2000/svg" viewBox="0 0 600 600" width="600" height="600" role="img" aria-label="Brightmoor Collagen Protein Powder | 20 oz | Vanilla | Types I and III"><defs><linearGradient id="bg" x1="0" y1="0" x2="1" y2="1"><stop offset="0" stop-color="#eee9fb"/><stop offset="1" stop-color="#e0c8ef"/></linearGradient></defs><rect width="600" height="600" fill="url(#bg)"/><circle cx="300" cy="278" r="118" fill="#fff" fill-opacity="0.55"/><g data-icon="pill-bottle" transform="translate(300 278) scale(7) translate(-12 -12)" fill="none" stroke="#382277" stroke-width="1.5" stroke-linecap="round" stroke-linejoin="round"><path d="M18 11h-4a1 1 0 0 0-1 1v5a1 1 0 0 0 1 1h4"/><path d="M6 7v13a2 2 0 0 0 2 2h8a2 2 0 0 0 2-2V7"/><rect width="16" height="5" x="4" y="2" rx="1"/></g><text x="300" y="432" font-family="system-ui,-apple-system,'Segoe UI',Roboto,Helvetica,Arial,sans-serif" font-size="24" letter-spacing="4" fill="#382277" fill-opacity="0.75" text-anchor="middle">BRIGHTMOOR</text></svg>