<svg xmlns="http://www.w3.org/2000/svg" viewBox="0 0 600 600" width="600" height="600" role="img" aria-label="Barkhaven Small Animal Chew Toys | 10-Pack | Willow | Natural"><defs><linearGradient id="bg" x1="0" y1="0" x2="1" y2="1"><stop offset="0" stop-color="#effbe9"/><stop offset="1" stop-color="#c8efca"/></linearGradient></defs><rect width="600" height="600" fill="url(#bg)"/><circle cx="300" cy="278" r="118" fill="#fff" fill-opacity="0.55"/><g data-icon="rabbit" transform="translate(300 278) scale(7) translate(-12 -12)" fill="none" stroke="#3b7722" stroke-width="1.5" stroke-linecap="round" stroke-linejoin="round"><path d="M13 16a3 3 0 0 1 2.24 5"/><path d="M18 12h.01"/><path d="M18 21h-8a4 4 0 0 1-4-4 7 7 0 0 1 7-7h.2L9.6 6.4a1 1 0 1 1 2.8-2.8L15.8 7h.2c3.3 0 6 2.7 6 6v1a2 2 0 0 1-2 2h-1a3 3 0 0 0-3 3"/><path d="M20 8.54V4a2 2 0 1 0-4 0v3"/><path d="M7.612 12.524a3 3 0 1 0-1.6 4.3"/></g><text x="300" y="432" font-family="system-ui,-apple-system,'Segoe UI',Roboto,Helvetica,Arial,sans-serif" font-size="24" letter-spacing="4" fill="#3b7722" fill-opacity="0.75" text-anchor="middle">BARKHAVEN</text></svg>