<svg xmlns="http://www.w3.org/2000/svg" viewBox="0 0 600 600" width="600" height="600" role="img" aria-label="Hearthwell Insulated Tumbler with Straw | 30 oz | Handle | Sunset Orange"><defs><linearGradient id="bg" x1="0" y1="0" x2="1" y2="1"><stop offset="0" stop-color="#eefbe9"/><stop offset="1" stop-color="#c8efcc"/></linearGradient></defs><rect width="600" height="600" fill="url(#bg)"/><circle cx="300" cy="278" r="118" fill="#fff" fill-opacity="0.55"/><g data-icon="cup-soda" transform="translate(300 278) scale(7) translate(-12 -12)" fill="none" stroke="#377722" stroke-width="1.5" stroke-linecap="round" stroke-linejoin="round"><path d="m6 8 1.75 12.28a2 2 0 0 0 2 1.72h4.54a2 2 0 0 0 2-1.72L18 8"/><path d="M5 8h14"/><path d="M7 15a6.47 6.47 0 0 1 5 0 6.47 6.47 0 0 0 5 0"/><path d="m12 8 1-6h2"/></g><text x="300" y="432" font-family="system-ui,-apple-system,'Segoe UI',Roboto,Helvetica,Arial,sans-serif" font-size="24" letter-spacing="4" fill="#377722" fill-opacity="0.75" text-anchor="middle">HEARTHWELL</text></svg>