<svg xmlns="http://www.w3.org/2000/svg" viewBox="0 0 600 600" width="600" height="600" role="img" aria-label="Aurelle Men's Crew Neck Cotton Tee | 5-Pack | Navy | Pre-Shrunk"><defs><linearGradient id="bg" x1="0" y1="0" x2="1" y2="1"><stop offset="0" stop-color="#eee9fb"/><stop offset="1" stop-color="#e1c8ef"/></linearGradient></defs><rect width="600" height="600" fill="url(#bg)"/><circle cx="300" cy="278" r="118" fill="#fff" fill-opacity="0.55"/><g data-icon="shirt" transform="translate(300 278) scale(7) translate(-12 -12)" fill="none" stroke="#3a2277" stroke-width="1.5" stroke-linecap="round" stroke-linejoin="round"><path d="M20.38 3.46 16 2a4 4 0 0 1-8 0L3.62 3.46a2 2 0 0 0-1.34 2.23l.58 3.47a1 1 0 0 0 .99.84H6v10c0 1.1.9 2 2 2h8a2 2 0 0 0 2-2V10h2.15a1 1 0 0 0 .99-.84l.58-3.47a2 2 0 0 0-1.34-2.23z"/></g><text x="300" y="432" font-family="system-ui,-apple-system,'Segoe UI',Roboto,Helvetica,Arial,sans-serif" font-size="24" letter-spacing="4" fill="#3a2277" fill-opacity="0.75" text-anchor="middle">AURELLE</text></svg>