<svg xmlns="http://www.w3.org/2000/svg" viewBox="0 0 600 600" width="600" height="600" role="img" aria-label="Inkwell &amp; Oak Removable Storage Labels | 750 Labels | White | Water Resistant"><defs><linearGradient id="bg" x1="0" y1="0" x2="1" y2="1"><stop offset="0" stop-color="#e9f0fb"/><stop offset="1" stop-color="#c8c9ef"/></linearGradient></defs><rect width="600" height="600" fill="url(#bg)"/><circle cx="300" cy="278" r="118" fill="#fff" fill-opacity="0.55"/><g data-icon="sticker" transform="translate(300 278) scale(7) translate(-12 -12)" fill="none" stroke="#224377" stroke-width="1.5" stroke-linecap="round" stroke-linejoin="round"><path d="M21 9a2.4 2.4 0 0 0-.706-1.706l-3.588-3.588A2.4 2.4 0 0 0 15 3H5a2 2 0 0 0-2 2v14a2 2 0 0 0 2 2h14a2 2 0 0 0 2-2z"/><path d="M15 3v5a1 1 0 0 0 1 1h5"/><path d="M8 13h.01"/><path d="M16 13h.01"/><path d="M10 16s.8 1 2 1c1.3 0 2-1 2-1"/></g><text x="300" y="432" font-family="system-ui,-apple-system,'Segoe UI',Roboto,Helvetica,Arial,sans-serif" font-size="24" letter-spacing="4" fill="#224377" fill-opacity="0.75" text-anchor="middle">INKWELL &amp; OAK</text></svg>