<svg xmlns="http://www.w3.org/2000/svg" viewBox="0 0 600 600" width="600" height="600" role="img" aria-label="Colorwell Double Sided Origami Paper | 100 Sheets | 3 x 3 in | Vivid Colors"><defs><linearGradient id="bg" x1="0" y1="0" x2="1" y2="1"><stop offset="0" stop-color="#fbf4e9"/><stop offset="1" stop-color="#efeec8"/></linearGradient></defs><rect width="600" height="600" fill="url(#bg)"/><circle cx="300" cy="278" r="118" fill="#fff" fill-opacity="0.55"/><g data-icon="origami" transform="translate(300 278) scale(7) translate(-12 -12)" fill="none" stroke="#775622" stroke-width="1.5" stroke-linecap="round" stroke-linejoin="round"><path d="M12 12V4a1 1 0 0 1 1-1h6.297a1 1 0 0 1 .651 1.759l-4.696 4.025"/><path d="m12 21-7.414-7.414A2 2 0 0 1 4 12.172V6.415a1.002 1.002 0 0 1 1.707-.707L20 20.009"/><path d="m12.214 3.381 8.414 14.966a1 1 0 0 1-.167 1.199l-1.168 1.163a1 1 0 0 1-.706.291H6.351a1 1 0 0 1-.625-.219L3.25 18.8a1 1 0 0 1 .631-1.781l4.165.027"/></g><text x="300" y="432" font-family="system-ui,-apple-system,'Segoe UI',Roboto,Helvetica,Arial,sans-serif" font-size="24" letter-spacing="4" fill="#775622" fill-opacity="0.75" text-anchor="middle">COLORWELL</text></svg>