<svg xmlns="http://www.w3.org/2000/svg" viewBox="0 0 600 600" width="600" height="600" role="img" aria-label="Whiskerwell Reflective Dog Harness | Small | Front Clip | Blue"><defs><linearGradient id="bg" x1="0" y1="0" x2="1" y2="1"><stop offset="0" stop-color="#f5e9fb"/><stop offset="1" stop-color="#efc8ee"/></linearGradient></defs><rect width="600" height="600" fill="url(#bg)"/><circle cx="300" cy="278" r="118" fill="#fff" fill-opacity="0.55"/><g data-icon="dog" transform="translate(300 278) scale(7) translate(-12 -12)" fill="none" stroke="#5b2277" stroke-width="1.5" stroke-linecap="round" stroke-linejoin="round"><path d="M11.25 16.25h1.5L12 17z"/><path d="M16 14v.5"/><path d="M4.42 11.247A13.152 13.152 0 0 0 4 14.556C4 18.728 7.582 21 12 21s8-2.272 8-6.444a11.702 11.702 0 0 0-.493-3.309"/><path d="M8 14v.5"/><path d="M8.5 8.5c-.384 1.05-1.083 2.028-2.344 2.5-1.931.722-3.576-.297-3.656-1-.113-.994 1.177-6.53 4-7 1.923-.321 3.651.845 3.651 2.235A7.497 7.497 0 0 1 14 5.277c0-1.39 1.844-2.598 3.767-2.277 2.823.47 4.113 6.006 4 7-.08.703-1.725 1.722-3.656 1-1.261-.472-1.855-1.45-2.239-2.5"/></g><text x="300" y="432" font-family="system-ui,-apple-system,'Segoe UI',Roboto,Helvetica,Arial,sans-serif" font-size="24" letter-spacing="4" fill="#5b2277" fill-opacity="0.75" text-anchor="middle">WHISKERWELL</text></svg>