<svg xmlns="http://www.w3.org/2000/svg" viewBox="0 0 600 600" width="600" height="600" role="img" aria-label="Loomhart Detail Paint Brushes | 24-Piece | Synthetic Bristles | Carry Case"><defs><linearGradient id="bg" x1="0" y1="0" x2="1" y2="1"><stop offset="0" stop-color="#f9fbe9"/><stop offset="1" stop-color="#dcefc8"/></linearGradient></defs><rect width="600" height="600" fill="url(#bg)"/><circle cx="300" cy="278" r="118" fill="#fff" fill-opacity="0.55"/><g data-icon="paintbrush" transform="translate(300 278) scale(7) translate(-12 -12)" fill="none" stroke="#6d7722" stroke-width="1.5" stroke-linecap="round" stroke-linejoin="round"><path d="m14.622 17.897-10.68-2.913"/><path d="M18.376 2.622a1 1 0 1 1 3.002 3.002L17.36 9.643a.5.5 0 0 0 0 .707l.944.944a2.41 2.41 0 0 1 0 3.408l-.944.944a.5.5 0 0 1-.707 0L8.354 7.348a.5.5 0 0 1 0-.707l.944-.944a2.41 2.41 0 0 1 3.408 0l.944.944a.5.5 0 0 0 .707 0z"/><path d="M9 8c-1.804 2.71-3.97 3.46-6.583 3.948a.507.507 0 0 0-.302.819l7.32 8.883a1 1 0 0 0 1.185.204C12.735 20.405 16 16.792 16 15"/></g><text x="300" y="432" font-family="system-ui,-apple-system,'Segoe UI',Roboto,Helvetica,Arial,sans-serif" font-size="24" letter-spacing="4" fill="#6d7722" fill-opacity="0.75" text-anchor="middle">LOOMHART</text></svg>